<svg width="192" height="64" viewBox="0 0 192 64" fill="none" xmlns="http://www.w3.org/2000/svg">
<g clip-path="url(#clip0_1_55)">
<path d="M87.4908 16.837L73.0409 18.9321L72.7849 18.9841C72.3975 19.087 72.0443 19.2908 71.7614 19.5748C71.4785 19.8588 71.2761 20.2128 71.1748 20.6007C71.0734 20.9885 71.0768 21.3963 71.1846 21.7823C71.2924 22.1684 71.5008 22.519 71.7884 22.7982L82.2567 32.9879L79.788 47.3813L79.7585 47.6304C79.7348 48.0311 79.818 48.4309 79.9996 48.7889C80.1812 49.1469 80.4547 49.4502 80.7921 49.6677C81.1294 49.8852 81.5185 50.0092 81.9196 50.0269C82.3206 50.0446 82.7191 49.9554 83.0743 49.7684L95.9977 42.9738L108.892 49.7684L109.118 49.8726C109.492 50.0199 109.898 50.065 110.295 50.0034C110.692 49.9419 111.066 49.7758 111.378 49.5222C111.689 49.2686 111.928 48.9367 112.069 48.5604C112.21 48.1842 112.248 47.7772 112.18 47.3813L109.709 32.9879L120.182 22.7959L120.359 22.6034C120.611 22.2926 120.777 21.9205 120.838 21.5249C120.9 21.1293 120.856 20.7244 120.71 20.3515C120.564 19.9786 120.322 19.651 120.009 19.402C119.695 19.1531 119.321 18.9917 118.925 18.9343L104.475 16.837L98.0158 3.74601C97.8288 3.36672 97.5395 3.04732 97.1804 2.82398C96.8214 2.60064 96.407 2.48227 95.9841 2.48227C95.5613 2.48227 95.1469 2.60064 94.7879 2.82398C94.4288 3.04732 94.1395 3.36672 93.9525 3.74601L87.4908 16.837Z" fill="#FBFF37"/>
</g>
<g clip-path="url(#clip1_1_55)">
<path d="M165.562 36.076L155.065 37.5979L154.879 37.6357C154.598 37.7104 154.341 37.8585 154.136 38.0648C153.93 38.2711 153.783 38.5282 153.709 38.81C153.636 39.0917 153.638 39.3879 153.717 39.6684C153.795 39.9488 153.946 40.2035 154.155 40.4063L161.76 47.8082L159.966 58.2637L159.945 58.4447C159.928 58.7358 159.988 59.0262 160.12 59.2862C160.252 59.5463 160.451 59.7666 160.696 59.9246C160.941 60.0826 161.223 60.1727 161.515 60.1855C161.806 60.1984 162.095 60.1336 162.353 59.9978L171.741 55.0621L181.108 59.9978L181.272 60.0735C181.544 60.1804 181.839 60.2132 182.127 60.1685C182.416 60.1238 182.687 60.0031 182.913 59.8189C183.14 59.6347 183.313 59.3936 183.416 59.1203C183.518 58.847 183.546 58.5514 183.496 58.2637L181.701 47.8082L189.309 40.4047L189.437 40.2648C189.621 40.039 189.741 39.7687 189.786 39.4813C189.831 39.194 189.798 38.8999 189.693 38.629C189.587 38.3581 189.411 38.1201 189.183 37.9393C188.955 37.7585 188.684 37.6412 188.396 37.5995L177.899 36.076L173.207 26.5666C173.071 26.291 172.861 26.059 172.6 25.8968C172.34 25.7346 172.038 25.6486 171.731 25.6486C171.424 25.6486 171.123 25.7346 170.862 25.8968C170.602 26.059 170.391 26.291 170.256 26.5666L165.562 36.076Z" fill="#FBFF37"/>
</g>
<g clip-path="url(#clip2_1_55)">
<path d="M14.0764 36.076L3.57977 37.5979L3.39385 37.6357C3.11242 37.7104 2.85585 37.8585 2.65036 38.0648C2.44486 38.2711 2.2978 38.5282 2.22419 38.81C2.15058 39.0917 2.15306 39.3879 2.23137 39.6684C2.30969 39.9488 2.46103 40.2035 2.66995 40.4063L10.2742 47.8082L8.48093 58.2637L8.45954 58.4447C8.44231 58.7358 8.50275 59.0262 8.63468 59.2862C8.7666 59.5463 8.96526 59.7666 9.21032 59.9246C9.45538 60.0826 9.73804 60.1727 10.0293 60.1855C10.3206 60.1984 10.6101 60.1336 10.8682 59.9978L20.2559 55.0621L29.6222 59.9978L29.7868 60.0735C30.0583 60.1804 30.3535 60.2132 30.6419 60.1685C30.9303 60.1238 31.2016 60.0031 31.428 59.8189C31.6544 59.6347 31.8278 59.3936 31.9302 59.1203C32.0327 58.847 32.0606 58.5514 32.0111 58.2637L30.2162 47.8082L37.8237 40.4047L37.9521 40.2648C38.1354 40.039 38.2556 39.7687 38.3004 39.4813C38.3452 39.194 38.3131 38.8999 38.2072 38.629C38.1014 38.3581 37.9256 38.1201 37.6979 37.9393C37.4701 37.7585 37.1985 37.6412 36.9106 37.5995L26.414 36.076L21.7218 26.5666C21.586 26.291 21.3758 26.059 21.115 25.8968C20.8542 25.7346 20.5532 25.6486 20.246 25.6486C19.9389 25.6486 19.6378 25.7346 19.377 25.8968C19.1162 26.059 18.906 26.291 18.7702 26.5666L14.0764 36.076Z" fill="#FBFF37"/>
</g>
<defs>
<clipPath id="clip0_1_55">
<rect width="54.3572" height="54.3572" fill="white" transform="translate(68.8214 0.212784)"/>
</clipPath>
<clipPath id="clip1_1_55">
<rect width="39.4857" height="39.4857" fill="white" transform="translate(152 24)"/>
</clipPath>
<clipPath id="clip2_1_55">
<rect width="39.4857" height="39.4857" fill="white" transform="translate(0.514694 24)"/>
</clipPath>
</defs>
</svg>
